<?xml version="1.0" standalone="no"?>
<!DOCTYPE svg PUBLIC "-//W3C//DTD SVG 20010904//EN"
 "http://www.w3.org/TR/2001/REC-SVG-20010904/DTD/svg10.dtd">
<svg version="1.0" xmlns="http://www.w3.org/2000/svg"
 width="500.000000pt" height="500.000000pt" viewBox="0 0 500.000000 500.000000"
 preserveAspectRatio="xMidYMid meet">

<g transform="translate(0.000000,500.000000) scale(0.100000,-0.100000)"
fill="#000000" stroke="none">
<path d="M1660 3402 c-8 -4 -27 -15 -42 -25 -19 -14 -36 -17 -58 -12 -19 4
-36 2 -45 -5 -23 -19 -65 -165 -65 -223 0 -33 -7 -66 -20 -90 -11 -20 -20 -52
-20 -69 0 -18 -7 -73 -16 -123 -18 -99 -11 -279 11 -315 10 -16 41 -11 59 9
10 11 24 17 31 15 18 -7 25 8 35 77 10 71 22 89 61 89 18 0 32 7 39 20 12 22
42 26 58 8 5 -7 13 -35 16 -61 4 -26 14 -63 21 -81 8 -18 12 -36 9 -39 -9 -8
16 -48 26 -42 5 3 11 1 15 -5 10 -16 29 -12 54 11 22 21 22 22 15 218 -4 122
-11 205 -19 221 -12 25 -26 143 -30 253 -3 90 -40 153 -100 170 -11 3 -27 2
-35 -1z m-15 -270 c6 -4 12 -52 14 -107 4 -111 0 -119 -57 -127 -53 -7 -57 8
-33 126 12 58 21 107 21 110 0 9 43 7 55 -2z"/>
<path d="M2457 3399 c-10 -6 -22 -21 -27 -34 -12 -31 5 -331 21 -385 9 -30 10
-53 2 -88 -8 -32 -8 -73 -2 -127 5 -44 9 -102 9 -128 -1 -45 2 -52 37 -83 40
-35 69 -42 96 -21 14 10 17 35 19 157 l3 145 35 0 35 0 0 -138 c0 -125 2 -140
19 -153 11 -8 27 -14 35 -14 25 0 91 20 92 28 0 4 2 26 4 50 2 23 8 49 15 57
7 9 11 49 10 112 -2 117 7 308 20 417 15 121 13 160 -9 180 -11 10 -25 15 -30
11 -6 -3 -11 -1 -11 6 0 17 -98 4 -121 -17 -16 -14 -19 -36 -21 -163 l-3 -146
-35 0 -35 0 4 150 c3 139 2 151 -17 168 -15 14 -25 15 -45 8 -19 -8 -28 -6
-37 5 -14 16 -38 18 -63 3z"/>
<path d="M438 3379 c-21 -20 -28 -39 -37 -108 -10 -78 -9 -86 9 -116 16 -26
19 -42 14 -74 -7 -47 5 -52 55 -26 23 11 31 12 39 2 19 -24 22 -71 11 -148
-10 -61 -10 -82 -1 -91 7 -7 12 -26 12 -42 0 -17 7 -53 15 -80 8 -27 15 -69
15 -93 0 -78 32 -104 79 -65 18 14 22 30 25 100 3 68 8 88 25 106 18 19 20 27
10 54 -6 18 -9 76 -7 136 4 129 13 144 76 125 31 -9 45 -9 55 0 27 21 32 302
6 285 -5 -3 -6 1 -3 9 9 25 -14 30 -140 32 -66 1 -146 5 -177 9 -50 8 -58 6
-81 -15z"/>
<path d="M2140 3385 c-7 -8 -28 -15 -46 -15 -42 0 -122 -42 -149 -78 -19 -25
-20 -43 -21 -257 -1 -206 1 -233 18 -261 10 -17 18 -49 18 -71 0 -25 8 -50 20
-66 11 -14 20 -28 20 -32 0 -14 46 -45 78 -51 18 -3 38 -14 45 -24 14 -20 44
-22 51 -4 3 8 25 19 50 25 46 11 47 12 75 100 24 75 8 113 -45 107 -21 -2 -33
-13 -48 -43 -30 -57 -59 -59 -87 -4 -17 35 -20 51 -14 88 10 61 11 143 1 216
-6 42 -4 69 5 90 7 17 11 34 10 39 -1 5 4 4 13 -3 10 -8 16 -9 21 -1 4 6 15 4
30 -7 20 -15 24 -27 25 -65 0 -61 20 -82 69 -73 20 4 44 14 54 23 26 23 46
101 36 137 -5 16 -9 49 -9 72 0 23 -5 53 -11 66 -11 24 -66 57 -96 57 -9 0
-31 11 -49 25 -38 29 -47 30 -64 10z"/>
<path d="M3508 3380 c-24 -13 -40 -30 -44 -46 -4 -15 -4 -94 -2 -176 4 -96 2
-160 -5 -178 -9 -23 -7 -41 6 -82 9 -29 21 -108 26 -175 10 -114 13 -123 39
-150 16 -16 40 -28 53 -28 21 0 25 6 32 53 5 28 13 52 18 52 5 0 9 33 9 74 0
88 15 110 58 85 20 -11 28 -26 34 -59 5 -29 16 -52 32 -65 14 -11 28 -33 31
-50 4 -16 9 -38 11 -47 3 -9 21 -26 41 -38 33 -19 37 -20 54 -4 16 14 18 30
16 115 -1 55 -6 99 -10 99 -5 0 -5 5 -2 10 3 6 2 10 -4 10 -16 0 -81 60 -81
75 0 7 10 15 23 19 30 7 67 74 67 119 0 20 4 47 10 62 12 32 -9 207 -24 198
-5 -3 -6 -1 -2 5 10 16 -15 64 -31 58 -7 -3 -12 0 -10 6 5 26 -66 52 -163 59
-52 4 -106 10 -120 13 -15 4 -40 -2 -62 -14z m185 -180 c3 -11 17 -22 33 -26
45 -11 54 -23 54 -74 0 -33 -7 -58 -24 -83 -13 -19 -21 -38 -18 -42 4 -4 0 -5
-8 -3 -8 2 -14 -2 -13 -9 2 -8 -4 -10 -14 -6 -10 4 -14 2 -10 -4 4 -7 0 -10
-10 -9 -16 2 -19 20 -27 124 -4 67 -6 129 -2 137 8 21 33 19 39 -5z"/>
<path d="M4325 3386 c-16 -8 -52 -22 -78 -31 -64 -23 -87 -59 -87 -139 0 -32
-5 -76 -12 -97 -10 -35 -9 -42 9 -62 12 -12 28 -48 37 -79 17 -58 55 -100 120
-129 38 -17 56 -58 56 -123 0 -34 5 -56 13 -59 6 -2 -6 -4 -28 -3 -39 1 -40 2
-50 48 -12 58 -20 66 -44 44 -10 -9 -29 -19 -42 -21 -28 -5 -49 -30 -50 -59
-1 -12 -2 -28 -3 -36 -2 -23 14 -40 40 -40 13 0 25 -8 28 -18 11 -34 63 -55
124 -49 50 5 59 10 108 61 30 31 54 59 54 63 0 5 5 48 11 96 6 49 8 99 5 112
-7 27 -109 100 -129 92 -28 -11 -49 18 -55 71 -5 61 11 108 41 116 35 9 48
-13 36 -58 -10 -36 -9 -41 15 -65 23 -22 29 -24 46 -13 11 6 33 12 49 12 54 0
72 37 51 108 -5 19 -10 57 -11 85 -3 63 -11 87 -41 122 -47 54 -152 79 -213
51z"/>
<path d="M932 3372 c-17 -15 -19 -21 -9 -31 9 -10 9 -12 -1 -9 -11 2 -13 -18
-11 -102 4 -124 3 -258 -2 -317 -3 -33 1 -45 16 -57 16 -12 20 -28 23 -88 7
-193 7 -197 27 -213 11 -8 33 -15 48 -15 15 0 43 -6 61 -14 30 -13 36 -12 62
5 16 10 45 19 64 19 52 0 82 39 78 105 l-3 50 -72 -3 c-97 -4 -123 12 -123 75
0 65 13 83 60 83 21 0 42 -4 45 -10 9 -14 34 -13 49 3 6 6 17 37 24 67 16 68
9 75 -89 84 -75 8 -86 17 -75 60 8 34 49 46 121 34 83 -13 91 -2 111 140 11
83 12 117 4 126 -11 14 -127 14 -202 0 -24 -4 -53 -1 -84 10 -62 21 -96 20
-122 -2z"/>
<path d="M2986 3367 l-29 -24 8 -159 c10 -193 10 -197 0 -257 -7 -42 -5 -51
15 -72 20 -21 22 -31 17 -84 -3 -42 -1 -65 9 -78 9 -12 11 -34 7 -69 -5 -47
-3 -53 18 -67 13 -9 40 -17 59 -18 19 -2 45 -9 57 -17 20 -12 26 -11 52 7 16
12 45 21 65 21 23 0 42 7 54 21 22 23 35 108 20 127 -12 14 -56 16 -90 4 -13
-5 -38 -5 -55 0 -37 10 -46 31 -41 98 4 60 27 74 88 53 42 -14 45 -14 61 5 9
11 19 42 23 69 8 60 -7 73 -90 78 -73 5 -96 23 -74 62 19 33 55 43 116 32 58
-11 77 -6 92 24 19 35 44 228 32 242 -11 13 -134 12 -215 -1 -28 -4 -53 -1
-79 10 -53 22 -86 20 -120 -7z"/>
<path d="M4040 3373 c-46 -17 -49 -28 -44 -167 4 -106 9 -133 22 -144 36 -28
46 -11 64 108 22 149 22 173 0 193 -20 18 -20 18 -42 10z"/>
<path d="M1386 2439 l-39 -33 5 -165 c3 -101 1 -174 -5 -188 -7 -16 -5 -41 8
-90 9 -37 19 -98 20 -136 5 -119 15 -166 35 -172 11 -3 22 -15 25 -26 5 -15
14 -19 33 -17 23 3 28 9 35 48 5 25 13 49 18 54 5 6 9 43 9 83 0 63 3 74 21
83 32 18 65 -9 72 -60 3 -25 14 -50 29 -63 14 -13 30 -43 36 -69 10 -38 42
-87 42 -63 0 5 9 0 20 -10 19 -18 21 -17 40 5 16 18 20 37 20 89 0 36 -4 73
-10 81 -6 9 -5 17 2 21 6 4 2 14 -11 25 -77 66 -101 104 -66 104 22 0 57 39
51 56 -3 8 -2 13 3 10 12 -8 21 18 21 57 0 18 4 46 9 64 13 46 -12 216 -37
248 -11 13 -22 21 -26 18 -3 -3 -6 -1 -6 5 0 27 -53 45 -153 53 -56 5 -115 11
-132 14 -24 5 -38 0 -69 -26z m194 -164 c0 -17 30 -35 59 -35 24 0 36 -34 28
-83 -3 -17 -7 -41 -9 -52 -2 -11 -11 -26 -21 -33 -9 -7 -14 -19 -11 -25 4 -7
4 -9 -1 -5 -4 4 -19 -1 -33 -12 -13 -11 -28 -18 -32 -15 -10 6 -24 250 -16
264 10 16 36 13 36 -4z"/>
<path d="M2040 2459 c-26 -11 -33 -17 -97 -95 -42 -51 -43 -53 -43 -127 0 -42
-7 -120 -15 -174 -15 -94 -15 -101 5 -173 11 -41 28 -104 37 -140 9 -36 21
-67 26 -69 6 -2 27 -19 47 -37 26 -24 47 -34 70 -34 19 0 38 -7 45 -16 18 -25
48 -4 84 59 17 29 48 67 69 84 37 30 39 35 45 100 3 37 13 88 21 111 9 24 19
85 22 135 8 108 -12 206 -50 247 -13 14 -34 44 -46 67 -16 30 -34 47 -62 58
-43 17 -120 19 -158 4z m111 -296 c7 -18 9 -75 5 -163 -8 -169 -9 -179 -18
-174 -3 2 -8 -2 -11 -8 -3 -10 -9 -9 -22 4 -13 12 -19 38 -23 92 -2 42 -7 74
-11 72 -3 -2 -7 6 -8 17 -1 12 -5 37 -9 55 -6 31 9 75 40 120 15 22 46 14 57
-15z"/>
<path d="M2563 2453 c-40 -23 -77 -69 -67 -84 4 -7 3 -9 -3 -6 -6 4 -21 -5
-34 -19 -21 -23 -24 -34 -21 -97 1 -40 -5 -106 -13 -149 -9 -42 -15 -96 -14
-120 2 -63 20 -129 32 -121 5 3 7 1 4 -4 -13 -20 32 -167 56 -185 12 -10 32
-27 44 -39 15 -16 30 -20 52 -17 17 2 31 1 31 -3 0 -5 9 -13 19 -19 21 -11 54
-3 45 11 -3 5 -1 9 4 9 14 0 63 81 55 92 -3 6 -2 8 4 5 5 -3 16 2 25 12 8 10
25 25 38 34 18 13 24 29 31 89 4 40 15 95 23 122 19 59 22 241 4 283 -6 15
-12 34 -14 42 -1 8 -12 26 -23 40 -12 14 -30 43 -41 63 -29 53 -60 70 -138 75
-52 3 -74 0 -99 -14z m125 -445 c-3 -131 -7 -171 -18 -183 -25 -25 -41 -2 -51
76 -6 41 -17 96 -26 122 -14 44 -14 52 0 85 8 20 18 45 21 55 7 23 47 38 65
24 10 -9 12 -46 9 -179z"/>
<path d="M3438 2441 c-15 -12 -29 -34 -33 -50 -3 -16 -17 -40 -29 -53 -23 -23
-46 -95 -46 -141 0 -13 -7 -32 -15 -43 -13 -16 -16 -17 -25 -4 -5 8 -10 34
-10 57 0 69 -29 186 -48 198 -9 5 -19 10 -22 10 -3 0 -15 6 -28 13 -21 12
-102 10 -170 -4 -38 -8 -53 -58 -41 -138 6 -42 5 -82 -1 -109 -16 -72 -12
-128 11 -153 19 -20 21 -34 20 -111 -2 -100 17 -272 32 -290 27 -34 100 7 116
65 7 24 7 40 1 46 -13 13 -13 79 0 71 6 -4 10 14 11 47 3 203 5 257 11 264 11
11 24 -32 43 -141 9 -55 22 -103 27 -106 7 -5 8 -29 4 -69 -11 -97 33 -198 69
-158 21 24 43 102 50 178 5 46 17 95 31 126 13 28 24 69 24 91 0 47 18 105 31
98 5 -3 8 -79 7 -168 -1 -172 2 -188 50 -239 19 -21 23 -34 19 -56 -5 -23 -1
-34 18 -50 22 -19 24 -19 37 -4 28 33 40 116 32 224 -5 88 -3 121 15 204 17
76 21 126 19 216 -2 64 0 114 5 111 4 -2 7 4 7 15 0 30 -31 49 -90 55 -30 3
-66 9 -80 12 -18 5 -34 0 -52 -14z"/>
</g>
</svg>
